<?xml version="1.0" encoding="UTF-8" standalone="no"?>
<svg
   xmlns:dc="http://purl.org/dc/elements/1.1/"
   xmlns:cc="http://creativecommons.org/ns#"
   xmlns:rdf="http://www.w3.org/1999/02/22-rdf-syntax-ns#"
   xmlns:svg="http://www.w3.org/2000/svg"
   xmlns="http://www.w3.org/2000/svg"
   xmlns:sodipodi="http://sodipodi.sourceforge.net/DTD/sodipodi-0.dtd"
   xmlns:inkscape="http://www.inkscape.org/namespaces/inkscape"
   width="1001.024"
   height="324.47458"
   viewBox="197 166 0 183.22996"
   id="svg2"
   version="1.1"
   inkscape:version="0.48.5 r10040"
   sodipodi:docname="mtd_05_all.png">
  <metadata
     id="metadata146">
    <rdf:RDF>
      <cc:Work
         rdf:about="">
        <dc:format>image/svg+xml</dc:format>
        <dc:type
           rdf:resource="http://purl.org/dc/dcmitype/StillImage" />
        <dc:title></dc:title>
      </cc:Work>
    </rdf:RDF>
  </metadata>
  <defs
     id="defs144" />
  <sodipodi:namedview
     pagecolor="#ffffff"
     bordercolor="#666666"
     borderopacity="1"
     objecttolerance="10"
     gridtolerance="10"
     guidetolerance="10"
     inkscape:pageopacity="0"
     inkscape:pageshadow="2"
     inkscape:window-width="1680"
     inkscape:window-height="995"
     id="namedview142"
     showgrid="true"
     inkscape:snap-global="true"
     showguides="false"
     inkscape:zoom="1.5264369"
     inkscape:cx="500.51199"
     inkscape:cy="162.23729"
     inkscape:window-x="-2"
     inkscape:window-y="32"
     inkscape:window-maximized="1"
     inkscape:current-layer="svg2"
     fit-margin-top="0"
     fit-margin-left="0"
     fit-margin-right="0"
     fit-margin-bottom="0">
    <inkscape:grid
       type="xygrid"
       id="grid3135"
       empspacing="5"
       visible="true"
       enabled="true"
       snapvisiblegridlinesonly="true"
       originx="-198.39349px"
       originy="-985.0914px" />
  </sodipodi:namedview>
  <g
     id="g4"
     transform="matrix(1,0,0,1.0241337,-198.98801,-174.02767)">
    <line
       style="fill:none;stroke:#000000;stroke-width:2"
       x1="200"
       y1="400"
       x2="1189"
       y2="400"
       id="line6" />
    <line
       style="fill:none;stroke:#000000;stroke-width:2"
       x1="210"
       y1="395"
       x2="210"
       y2="405"
       id="line8" />
    <polygon
       style="fill:#000000"
       points="1199,400 1189,395 1189,405 "
       id="polygon10" />
    <polygon
       style="fill:none;stroke:#000000;stroke-width:2"
       points="1199,400 1189,395 1189,405 "
       id="polygon12" />
  </g>
  <text
     font-size="12.7998"
     style="font-size:12.9533329px;font-style:normal;font-weight:normal;text-anchor:start;fill:#000000;font-family:sans-serif"
     x="972.51642"
     y="255.80107"
     id="text14"
     transform="scale(0.98814727,1.0119949)">
    <tspan
       x="972.51642"
       y="255.80107"
       id="tspan16">Time</tspan>
  </text>
  <g
     id="g18"
     transform="matrix(1,0,0,1.0241337,-198.98801,-174.02767)">
    <rect
       style="fill:#00ff00"
       x="260"
       y="380"
       width="39.032299"
       height="40.333302"
       id="rect20" />
    <rect
       style="fill:none;stroke:#000000;stroke-width:2"
       x="260"
       y="380"
       width="39.032299"
       height="40.333302"
       id="rect22" />
    <rect
       style="fill:none;stroke:#000000;stroke-width:2"
       x="260"
       y="380"
       width="39.032299"
       height="40.333302"
       id="rect24" />
  </g>
  <line
     style="fill:none;stroke:#000000;stroke-width:1.01199496"
     x1="81.012001"
     y1="71.764435"
     x2="80.591988"
     y2="214.12109"
     id="line32" />
  <line
     style="fill:none;stroke:#000000;stroke-width:1.01199496"
     x1="281.01199"
     y1="71.764435"
     x2="281.01199"
     y2="235.62582"
     id="line34" />
  <g
     id="g40"
     transform="matrix(1,0,0,1.0241337,-198.98801,-174.02767)">
    <line
       style="fill:none;stroke:#000000;stroke-width:2"
       x1="291"
       y1="260"
       x2="469"
       y2="260"
       id="line42" />
    <polygon
       style="fill:#000000"
       points="281,260 291,265 291,255 "
       id="polygon44" />
    <polygon
       style="fill:none;stroke:#000000;stroke-width:2"
       points="281,260 291,265 291,255 "
       id="polygon46" />
    <polygon
       style="fill:#000000"
       points="479,260 469,255 469,265 "
       id="polygon48" />
    <polygon
       style="fill:none;stroke:#000000;stroke-width:2"
       points="479,260 469,255 469,265 "
       id="polygon50" />
  </g>
  <g
     id="g52"
     transform="matrix(1,0,0,1.0241337,-198.98801,-174.02767)">
    <polygon
       style="fill:#ff0000"
       points="474.667,386.667 480,360 485.333,386.667 506.667,373.333 493.333,394.667 520,400 493.333,405.333 506.667,426.667 485.333,413.333 480,440 474.667,413.333 453.333,426.667 466.667,405.333 440,400 466.667,394.667 453.333,373.333 "
       id="polygon54" />
    <polygon
       style="fill:none;stroke:#000000;stroke-width:2"
       points="474.667,386.667 480,360 485.333,386.667 506.667,373.333 493.333,394.667 520,400 493.333,405.333 506.667,426.667 485.333,413.333 480,440 474.667,413.333 453.333,426.667 466.667,405.333 440,400 466.667,394.667 453.333,373.333 "
       id="polygon56" />
    <polygon
       style="fill:none;stroke:#000000;stroke-width:2"
       points="474.667,386.667 480,360 485.333,386.667 506.667,373.333 493.333,394.667 520,400 493.333,405.333 506.667,426.667 485.333,413.333 480,440 474.667,413.333 453.333,426.667 466.667,405.333 440,400 466.667,394.667 453.333,373.333 "
       id="polygon58" />
  </g>
  <text
     font-size="14.1109"
     style="font-size:14.280159px;font-style:normal;font-weight:normal;text-anchor:start;fill:#000000;font-family:sans-serif"
     x="162.94334"
     y="70.913826"
     id="text60"
     transform="scale(0.98814727,1.0119949)">
    <tspan
       x="162.94334"
       y="70.913826"
       id="tspan62">RPO</tspan>
  </text>
  <g
     id="g64"
     transform="matrix(1,0,0,1.0241337,-198.98801,-174.02767)">
    <rect
       style="fill:#ffa500"
       x="760"
       y="380"
       width="39.032299"
       height="40.333302"
       id="rect66" />
    <rect
       style="fill:none;stroke:#000000;stroke-width:2"
       x="760"
       y="380"
       width="39.032299"
       height="40.333302"
       id="rect68" />
    <rect
       style="fill:none;stroke:#000000;stroke-width:2"
       x="760"
       y="380"
       width="39.032299"
       height="40.333302"
       id="rect70" />
  </g>
  <line
     style="fill:none;stroke:#000000;stroke-width:1.01199496"
     x1="580.81335"
     y1="71.764137"
     x2="580.79071"
     y2="214.1214"
     id="line72" />
  <g
     id="g74"
     transform="matrix(1,0,0,1.0241337,-198.98801,-174.02767)">
    <line
       style="fill:none;stroke:#000000;stroke-width:2"
       x1="491"
       y1="260"
       x2="769"
       y2="260"
       id="line76" />
    <polygon
       style="fill:#000000"
       points="481,260 491,265 491,255 "
       id="polygon78" />
    <polygon
       style="fill:none;stroke:#000000;stroke-width:2"
       points="481,260 491,265 491,255 "
       id="polygon80" />
    <polygon
       style="fill:#000000"
       points="779,260 769,255 769,265 "
       id="polygon82" />
    <polygon
       style="fill:none;stroke:#000000;stroke-width:2"
       points="779,260 769,255 769,265 "
       id="polygon84" />
  </g>
  <text
     font-size="14.1109"
     style="font-size:14.280159px;font-style:normal;font-weight:normal;text-anchor:start;fill:#000000;font-family:sans-serif"
     x="426.06198"
     y="70.913826"
     id="text86"
     transform="scale(0.98814727,1.0119949)">
    <tspan
       x="426.06198"
       y="70.913826"
       id="tspan88">RTO</tspan>
  </text>
  <g
     id="g94"
     transform="matrix(1,0,0,1.0241337,-198.98801,-174.02767)">
    <rect
       style="fill:#00ff00"
       x="940"
       y="380"
       width="39.032299"
       height="40.333302"
       id="rect96" />
    <rect
       style="fill:none;stroke:#000000;stroke-width:2"
       x="940"
       y="380"
       width="39.032299"
       height="40.333302"
       id="rect98" />
    <rect
       style="fill:none;stroke:#000000;stroke-width:2"
       x="940"
       y="380"
       width="39.032299"
       height="40.333302"
       id="rect100" />
  </g>
  <line
     style="fill:none;stroke:#000000;stroke-width:1.01199496"
     x1="760.59204"
     y1="214.12109"
     x2="761.01202"
     y2="71.764435"
     id="line108" />
  <g
     id="g110"
     transform="matrix(1,0,0,1.0241337,-198.98801,-174.02767)">
    <line
       style="fill:none;stroke:#000000;stroke-width:2"
       x1="791"
       y1="260"
       x2="949"
       y2="260"
       id="line112" />
    <polygon
       style="fill:#000000"
       points="781,260 791,265 791,255 "
       id="polygon114" />
    <polygon
       style="fill:none;stroke:#000000;stroke-width:2"
       points="781,260 791,265 791,255 "
       id="polygon116" />
    <polygon
       style="fill:#000000"
       points="959,260 949,255 949,265 "
       id="polygon118" />
    <polygon
       style="fill:none;stroke:#000000;stroke-width:2"
       points="959,260 949,255 949,265 "
       id="polygon120" />
  </g>
  <text
     font-size="14.1109"
     style="font-size:14.280159px;font-style:normal;font-weight:normal;text-anchor:start;fill:#000000;font-family:sans-serif"
     x="668.9408"
     y="70.913826"
     id="text122"
     transform="scale(0.98814727,1.0119949)">
    <tspan
       x="668.9408"
       y="70.913826"
       id="tspan124">WRT</tspan>
  </text>
  <g
     id="g126"
     transform="matrix(1,0,0,1.0241337,-198.98801,-174.02767)">
    <line
       style="fill:none;stroke:#000000;stroke-width:2"
       x1="491"
       y1="200"
       x2="949"
       y2="200"
       id="line128" />
    <polygon
       style="fill:#000000"
       points="481,200 491,205 491,195 "
       id="polygon130" />
    <polygon
       style="fill:none;stroke:#000000;stroke-width:2"
       points="481,200 491,205 491,195 "
       id="polygon132" />
    <polygon
       style="fill:#000000"
       points="959,200 949,195 949,205 "
       id="polygon134" />
    <polygon
       style="fill:none;stroke:#000000;stroke-width:2"
       points="959,200 949,195 949,205 "
       id="polygon136" />
  </g>
  <text
     font-size="14.1109"
     style="font-size:14.280159px;font-style:normal;font-weight:normal;text-anchor:start;fill:#000000;font-family:sans-serif"
     x="507.02158"
     y="10.194137"
     id="text138"
     transform="scale(0.98814727,1.0119949)">
    <tspan
       x="507.02158"
       y="10.194137"
       id="tspan140">MTD</tspan>
  </text>
  <flowRoot
     xml:space="preserve"
     id="flowRoot3123"
     style="font-size:10px;font-style:normal;font-variant:normal;font-weight:normal;font-stretch:normal;text-align:start;line-height:125%;letter-spacing:0px;word-spacing:0px;writing-mode:lr-tb;text-anchor:start;fill:#000000;fill-opacity:1;stroke:none;font-family:Sans;-inkscape-font-specification:Sans"
     transform="matrix(1.4266333,0,0,1.4610633,-98.77615,-163.42171)"><flowRegion
       id="flowRegion3125"><rect
         id="rect3127"
         width="54.995846"
         height="29.484076"
         x="112.8479"
         y="309.07462"
         style="font-size:10px;font-style:normal;font-variant:normal;font-weight:normal;font-stretch:normal;text-align:start;line-height:125%;writing-mode:lr-tb;text-anchor:start;font-family:Sans;-inkscape-font-specification:Sans" /></flowRegion><flowPara
       id="flowPara3131">Normal</flowPara><flowPara
       id="flowPara4420">operation</flowPara></flowRoot>  <flowRoot
     xml:space="preserve"
     id="flowRoot3176"
     style="font-size:10px;font-style:normal;font-variant:normal;font-weight:normal;font-stretch:normal;text-align:start;line-height:125%;letter-spacing:0px;word-spacing:0px;writing-mode:lr-tb;text-anchor:start;fill:#000000;fill-opacity:1;stroke:none;font-family:Sans;-inkscape-font-specification:Sans"
     transform="matrix(1.4266333,0,0,1.4610633,426.00198,-164.42619)"><flowRegion
       id="flowRegion3178"><rect
         id="rect3180"
         width="130"
         height="53.893272"
         x="220"
         y="309.76379"
         style="font-size:10px;font-style:normal;font-variant:normal;font-weight:normal;font-stretch:normal;text-align:start;line-height:125%;writing-mode:lr-tb;text-anchor:start;font-family:Sans;-inkscape-font-specification:Sans" /></flowRegion><flowPara
       id="flowPara3182">Resume normal</flowPara><flowPara
       id="flowPara4361">operation</flowPara></flowRoot>  <flowRoot
     xml:space="preserve"
     id="flowRoot3123-9"
     style="font-size:10px;font-style:normal;font-variant:normal;font-weight:normal;font-stretch:normal;text-align:start;line-height:125%;letter-spacing:0px;word-spacing:0px;writing-mode:lr-tb;text-anchor:start;fill:#000000;fill-opacity:1;stroke:none;font-family:Sans;-inkscape-font-specification:Sans"
     transform="matrix(1.4266333,0,0,1.4610633,93.819335,-163.42171)"><flowRegion
       id="flowRegion3125-2"><rect
         id="rect3127-2"
         width="123.95728"
         height="22.218706"
         x="112.8479"
         y="309.07462"
         style="font-size:10px;font-style:normal;font-variant:normal;font-weight:normal;font-stretch:normal;text-align:start;line-height:125%;writing-mode:lr-tb;text-anchor:start;font-family:Sans;-inkscape-font-specification:Sans" /></flowRegion><flowPara
       id="flowPara3211">Disaster</flowPara></flowRoot>  <flowRoot
     xml:space="preserve"
     id="flowRoot3123-3"
     style="font-size:10px;font-style:normal;font-variant:normal;font-weight:normal;font-stretch:normal;text-align:start;line-height:125%;letter-spacing:0px;word-spacing:0px;writing-mode:lr-tb;text-anchor:start;fill:#000000;fill-opacity:1;stroke:none;font-family:Sans;-inkscape-font-specification:Sans"
     transform="matrix(1.4266333,0,0,1.4610633,400.54549,-163.42171)"><flowRegion
       id="flowRegion3125-5"><rect
         id="rect3127-1"
         width="123.95728"
         height="22.218706"
         x="112.8479"
         y="309.07462"
         style="font-size:10px;font-style:normal;font-variant:normal;font-weight:normal;font-stretch:normal;text-align:start;line-height:125%;writing-mode:lr-tb;text-anchor:start;font-family:Sans;-inkscape-font-specification:Sans" /></flowRegion><flowPara
       id="flowPara3131-8">Recovery</flowPara></flowRoot></svg>
