<?xml version="1.0" encoding="UTF-8" standalone="no"?>
<!DOCTYPE svg PUBLIC "-//W3C//DTD SVG 1.0//EN" "http://www.w3.org/TR/2001/PR-SVG-20010719/DTD/svg10.dtd">
<svg width="20cm" height="12cm" viewBox="197 226 1011 253" xmlns="http://www.w3.org/2000/svg" xmlns:xlink="http://www.w3.org/1999/xlink">
  <g>
    <line style="fill: none; fill-opacity:0; stroke-width: 2; stroke: #000000" x1="200" y1="400" x2="1189" y2="400"/>
    <line style="fill: none; fill-opacity:0; stroke-width: 2; stroke: #000000" x1="210" y1="395" x2="210" y2="405"/>
    <polygon style="fill: #000000" points="1189,405 1199,400 1189,395 "/>
    <polygon style="fill: none; fill-opacity:0; stroke-width: 2; stroke: #000000" points="1189,405 1199,400 1189,395 "/>
  </g>
  <text font-size="12.8" style="fill: #000000;text-anchor:start;font-family:sans-serif;font-style:normal;font-weight:normal" x="1180" y="420">
    <tspan x="1180" y="420">Time</tspan>
  </text>
  <g>
    <rect style="fill: #00ff00" x="260" y="380" width="39.0323" height="40.3333"/>
    <rect style="fill: none; fill-opacity:0; stroke-width: 2; stroke: #000000" x="260" y="380" width="39.0323" height="40.3333"/>
    <rect style="fill: none; fill-opacity:0; stroke-width: 2; stroke: #000000" x="260" y="380" width="39.0323" height="40.3333"/>
  </g>
  <text font-size="12.8" style="fill: #000000;text-anchor:start;font-family:sans-serif;font-style:normal;font-weight:normal" x="260" y="460">
    <tspan x="260" y="460">Normal</tspan>
    <tspan x="260" y="476">operation</tspan>
  </text>
  <line style="fill: none; fill-opacity:0; stroke-width: 1; stroke: #000000" x1="280" y1="240" x2="279.58" y2="379.002"/>
  <line style="fill: none; fill-opacity:0; stroke-width: 1; stroke: #000000" x1="480" y1="240" x2="480" y2="400"/>
  <text font-size="12.8" style="fill: #000000;text-anchor:start;font-family:sans-serif;font-style:normal;font-weight:normal" x="460" y="460">
    <tspan x="460" y="460">Disaster</tspan>
  </text>
  <g>
    <line style="fill: none; fill-opacity:0; stroke-width: 2; stroke: #000000" x1="291" y1="260" x2="469" y2="260"/>
    <polygon style="fill: #000000" points="291,255 281,260 291,265 "/>
    <polygon style="fill: none; fill-opacity:0; stroke-width: 2; stroke: #000000" points="291,255 281,260 291,265 "/>
    <polygon style="fill: #000000" points="469,265 479,260 469,255 "/>
    <polygon style="fill: none; fill-opacity:0; stroke-width: 2; stroke: #000000" points="469,265 479,260 469,255 "/>
  </g>
  <g>
    <polygon style="fill: #ff0000" points="440,400 466.667,394.667 453.333,373.333 474.667,386.667 480,360 485.333,386.667 506.667,373.333 493.333,394.667 520,400 493.333,405.333 506.667,426.667 485.333,413.333 480,440 474.667,413.333 453.333,426.667 466.667,405.333 "/>
    <polygon style="fill: none; fill-opacity:0; stroke-width: 2; stroke: #000000" points="440,400 466.667,394.667 453.333,373.333 474.667,386.667 480,360 485.333,386.667 506.667,373.333 493.333,394.667 520,400 493.333,405.333 506.667,426.667 485.333,413.333 480,440 474.667,413.333 453.333,426.667 466.667,405.333 "/>
    <polygon style="fill: none; fill-opacity:0; stroke-width: 2; stroke: #000000" points="440,400 466.667,394.667 453.333,373.333 474.667,386.667 480,360 485.333,386.667 506.667,373.333 493.333,394.667 520,400 493.333,405.333 506.667,426.667 485.333,413.333 480,440 474.667,413.333 453.333,426.667 466.667,405.333 "/>
  </g>
  <text font-size="14.1111" style="fill: #000000;text-anchor:start;font-family:sans-serif;font-style:normal;font-weight:normal" x="360" y="240">
    <tspan x="360" y="240">RPO</tspan>
  </text>
  <g>
    <rect style="fill: #ffa500" x="760" y="380" width="39.0323" height="40.3333"/>
    <rect style="fill: none; fill-opacity:0; stroke-width: 2; stroke: #000000" x="760" y="380" width="39.0323" height="40.3333"/>
    <rect style="fill: none; fill-opacity:0; stroke-width: 2; stroke: #000000" x="760" y="380" width="39.0323" height="40.3333"/>
  </g>
  <line style="fill: none; fill-opacity:0; stroke-width: 1; stroke: #000000" x1="780" y1="240" x2="779.58" y2="379.002"/>
  <g>
    <line style="fill: none; fill-opacity:0; stroke-width: 2; stroke: #000000" x1="491" y1="260" x2="769" y2="260"/>
    <polygon style="fill: #000000" points="491,255 481,260 491,265 "/>
    <polygon style="fill: none; fill-opacity:0; stroke-width: 2; stroke: #000000" points="491,255 481,260 491,265 "/>
    <polygon style="fill: #000000" points="769,265 779,260 769,255 "/>
    <polygon style="fill: none; fill-opacity:0; stroke-width: 2; stroke: #000000" points="769,265 779,260 769,255 "/>
  </g>
  <text font-size="14.1111" style="fill: #000000;text-anchor:start;font-family:sans-serif;font-style:normal;font-weight:normal" x="620" y="240">
    <tspan x="620" y="240">RTO</tspan>
  </text>
  <text font-size="12.8" style="fill: #000000;text-anchor:start;font-family:sans-serif;font-style:normal;font-weight:normal" x="760" y="460">
    <tspan x="760" y="460">Recovery</tspan>
  </text>
</svg>
